<svg width="380" height="58" viewBox="0 0 380 58" fill="none" xmlns="http://www.w3.org/2000/svg">
<path d="M0 0H380V58H197.6H0V0Z" fill="#332A5D"/>
<path d="M24.0894 29.816V41H22.6734V24.2H29.6814L33.1854 31.208L35.9694 24.2H43.6494V41H35.9694V28.4L31.0734 41H28.9854L24.0894 29.816ZM44.6493 24.2H52.8093V31.712H58.1133V24.2H66.2733V41H58.1133V33.32H52.8093V41H44.6493V24.2ZM67.2581 24.2H83.3141C84.0981 24.2 84.8181 24.4 85.4741 24.8C86.1461 25.184 86.6741 25.712 87.0581 26.384C87.4581 27.04 87.6581 27.76 87.6581 28.544C87.6581 29.584 87.3381 30.528 86.6981 31.376C86.0581 32.224 85.2501 32.768 84.2741 33.008C85.1381 33.248 85.8421 33.704 86.3861 34.376C86.9461 35.048 87.2261 35.808 87.2261 36.656V41H79.1861V35.792C79.1861 35.28 79.0901 34.88 78.8981 34.592C78.6741 34.256 78.4181 34.008 78.1301 33.848C77.8101 33.672 77.4501 33.544 77.0501 33.464C76.6341 33.384 76.2421 33.336 75.8741 33.32L75.2261 33.296V41H67.2581V24.2ZM76.0661 31.904C76.6421 31.904 77.1701 31.768 77.6501 31.496C78.1461 31.208 78.5301 30.824 78.8021 30.344C79.0901 29.848 79.2341 29.32 79.2341 28.76C79.2341 28.184 79.0901 27.656 78.8021 27.176C78.5301 26.68 78.1461 26.288 77.6501 26C77.1701 25.712 76.6421 25.568 76.0661 25.568H75.2261V31.928L76.0661 31.904ZM98.5537 32.576C98.5537 29.744 99.2497 27.64 100.642 26.264C101.538 25.368 102.538 24.776 103.642 24.488C104.746 24.2 106.194 24.056 107.986 24.056C109.65 24.056 110.986 24.176 111.994 24.416C113.018 24.64 113.858 25.128 114.514 25.88C115.058 26.504 115.482 27.264 115.786 28.16C116.106 29.04 116.29 29.904 116.338 30.752H114.97C114.906 30.032 114.73 29.296 114.442 28.544C114.17 27.776 113.738 27.12 113.146 26.576C112.554 26.016 111.802 25.736 110.89 25.736C110.042 25.736 109.338 26.112 108.778 26.864C108.298 27.52 107.954 28.392 107.746 29.48C107.554 30.44 107.458 31.472 107.458 32.576C107.458 34.384 107.682 35.896 108.13 37.112C108.722 38.664 109.642 39.44 110.89 39.44V32.792H118.234V41C115.93 41 113.322 41.032 110.41 41.096L107.986 41.12C106.226 41.12 104.794 40.952 103.69 40.616C102.602 40.264 101.666 39.696 100.882 38.912C99.3297 37.36 98.5537 35.248 98.5537 32.576ZM127.281 41.12C124.385 41.12 122.313 40.696 121.065 39.848C119.833 39 119.217 37.704 119.217 35.96V24.2H128.385V35.96C128.385 37.096 128.633 37.928 129.129 38.456C129.641 38.968 130.313 39.224 131.145 39.224C133.001 39.224 133.929 38.136 133.929 35.96V24.2H135.345V35.96C135.345 37.32 135.057 38.376 134.481 39.128C133.905 39.864 133.041 40.384 131.889 40.688C130.737 40.976 129.201 41.12 127.281 41.12ZM141.383 24.2H148.391L155.831 41H146.759L144.239 35.432H138.959L136.799 41H135.047L141.383 24.2ZM143.567 33.968L141.383 29.096L139.487 33.968H143.567ZM156.419 24.2H172.475C173.259 24.2 173.979 24.4 174.635 24.8C175.307 25.184 175.835 25.712 176.219 26.384C176.619 27.04 176.819 27.76 176.819 28.544C176.819 29.584 176.499 30.528 175.859 31.376C175.219 32.224 174.411 32.768 173.435 33.008C174.299 33.248 175.003 33.704 175.547 34.376C176.107 35.048 176.387 35.808 176.387 36.656V41H168.347V35.792C168.347 35.28 168.251 34.88 168.059 34.592C167.835 34.256 167.579 34.008 167.291 33.848C166.971 33.672 166.611 33.544 166.211 33.464C165.795 33.384 165.403 33.336 165.035 33.32L164.387 33.296V41H156.419V24.2ZM165.227 31.904C165.803 31.904 166.331 31.768 166.811 31.496C167.307 31.208 167.691 30.824 167.963 30.344C168.251 29.848 168.395 29.32 168.395 28.76C168.395 28.184 168.251 27.656 167.963 27.176C167.691 26.68 167.307 26.288 166.811 26C166.331 25.712 165.803 25.568 165.227 25.568H164.387V31.928L165.227 31.904ZM177.668 24.2H190.292C192.58 24.2 194.556 25.016 196.22 26.648C197.868 28.296 198.692 30.272 198.692 32.576C198.692 34.912 197.868 36.904 196.22 38.552C194.572 40.184 192.596 41 190.292 41H177.668V24.2ZM187.508 39.608C188.42 39.608 189.076 39.312 189.476 38.72C189.86 38.144 190.1 37.328 190.196 36.272C190.276 35.584 190.316 34.352 190.316 32.576C190.316 31.2 190.268 29.888 190.172 28.64C190.076 27.696 189.836 26.976 189.452 26.48C189.052 25.888 188.404 25.592 187.508 25.592H186.068V39.608H187.508ZM215.53 25.616H209.218V24.2H230.266V25.616H223.93V41H215.53V25.616ZM231.081 24.2H247.137C247.921 24.2 248.641 24.4 249.297 24.8C249.969 25.184 250.497 25.712 250.881 26.384C251.281 27.04 251.481 27.76 251.481 28.544C251.481 29.584 251.161 30.528 250.521 31.376C249.881 32.224 249.073 32.768 248.097 33.008C248.961 33.248 249.665 33.704 250.209 34.376C250.769 35.048 251.049 35.808 251.049 36.656V41H243.009V35.792C243.009 35.28 242.913 34.88 242.721 34.592C242.497 34.256 242.241 34.008 241.953 33.848C241.633 33.672 241.273 33.544 240.873 33.464C240.457 33.384 240.065 33.336 239.697 33.32L239.049 33.296V41H231.081V24.2ZM239.889 31.904C240.465 31.904 240.993 31.768 241.473 31.496C241.969 31.208 242.353 30.824 242.625 30.344C242.913 29.848 243.057 29.32 243.057 28.76C243.057 28.184 242.913 27.656 242.625 27.176C242.353 26.68 241.969 26.288 241.473 26C240.993 25.712 240.465 25.568 239.889 25.568H239.049V31.928L239.889 31.904ZM258.074 24.2H265.082L272.522 41H263.45L260.93 35.432H255.65L253.49 41H251.738L258.074 24.2ZM260.258 33.968L258.074 29.096L256.178 33.968H260.258ZM283.384 39.44C284.584 39.44 285.536 38.952 286.24 37.976C286.944 37 287.4 35.816 287.608 34.424H289.096C288.872 36.152 288.304 37.624 287.392 38.84C286.88 39.512 286.296 40.016 285.64 40.352C285 40.672 284.288 40.88 283.504 40.976C282.736 41.072 281.728 41.12 280.48 41.12C278.72 41.12 277.288 40.952 276.184 40.616C275.096 40.264 274.16 39.696 273.376 38.912C271.84 37.376 271.072 35.264 271.072 32.576C271.072 29.744 271.76 27.64 273.136 26.264C274.032 25.368 275.032 24.776 276.136 24.488C277.24 24.2 278.688 24.056 280.48 24.056C282.128 24.056 283.464 24.176 284.488 24.416C285.528 24.64 286.376 25.128 287.032 25.88C287.576 26.504 288 27.256 288.304 28.136C288.608 29.016 288.784 29.888 288.832 30.752H287.464C287.4 30.032 287.224 29.296 286.936 28.544C286.664 27.776 286.232 27.12 285.64 26.576C285.048 26.016 284.296 25.736 283.384 25.736C282.52 25.736 281.824 26.112 281.296 26.864C280.832 27.456 280.48 28.328 280.24 29.48C280.064 30.36 279.976 31.392 279.976 32.576C279.976 34.448 280.2 35.96 280.648 37.112C281.224 38.664 282.136 39.44 283.384 39.44ZM289.907 24.2H298.331V41H289.907V24.2ZM298.331 32.576L302.267 24.2H310.643L306.443 32.576L311.771 41H303.299L298.331 32.576ZM312.328 24.2H320.152V41H312.328V24.2ZM321.156 24.2H328.212L335.22 32.6V24.2H336.66V41H331.02L322.62 29.816V41H321.156V24.2ZM337.647 32.576C337.647 29.744 338.343 27.64 339.735 26.264C340.631 25.368 341.631 24.776 342.735 24.488C343.839 24.2 345.287 24.056 347.079 24.056C348.743 24.056 350.079 24.176 351.087 24.416C352.111 24.64 352.951 25.128 353.607 25.88C354.151 26.504 354.575 27.264 354.879 28.16C355.199 29.04 355.383 29.904 355.431 30.752H354.063C353.999 30.032 353.823 29.296 353.535 28.544C353.263 27.776 352.831 27.12 352.239 26.576C351.647 26.016 350.895 25.736 349.983 25.736C349.135 25.736 348.431 26.112 347.871 26.864C347.391 27.52 347.047 28.392 346.839 29.48C346.647 30.44 346.551 31.472 346.551 32.576C346.551 34.384 346.775 35.896 347.223 37.112C347.815 38.664 348.735 39.44 349.983 39.44V32.792H357.327V41C355.023 41 352.415 41.032 349.503 41.096L347.079 41.12C345.319 41.12 343.887 40.952 342.783 40.616C341.695 40.264 340.759 39.696 339.975 38.912C338.423 37.36 337.647 35.248 337.647 32.576Z" fill="#F5E79D"/>
</svg>
