<svg width="704" height="58" viewBox="0 0 704 58" fill="none" xmlns="http://www.w3.org/2000/svg">
<path d="M0 0H704V58H366.08H0V0Z" fill="#D10066"/>
<path d="M71.4359 24.2H79.5959L85.2119 36.896L89.9399 24.2H93.5399L99.0599 36.608L103.668 24.2H105.516L99.1799 41H91.9079L88.4279 33.128L85.4519 41H78.8759L71.4359 24.2ZM106.461 24.2H123.909V25.616H114.909V31.832H119.325V33.272H114.909V39.56H123.909V41H106.461V24.2ZM125.281 24.2H133.705V39.56H142.825V41H125.281V24.2ZM156.507 39.44C157.707 39.44 158.659 38.952 159.363 37.976C160.067 37 160.523 35.816 160.731 34.424H162.219C161.995 36.152 161.427 37.624 160.515 38.84C160.003 39.512 159.419 40.016 158.763 40.352C158.123 40.672 157.411 40.88 156.627 40.976C155.859 41.072 154.851 41.12 153.603 41.12C151.843 41.12 150.411 40.952 149.307 40.616C148.219 40.264 147.283 39.696 146.499 38.912C144.963 37.376 144.195 35.264 144.195 32.576C144.195 29.744 144.883 27.64 146.259 26.264C147.155 25.368 148.155 24.776 149.259 24.488C150.363 24.2 151.811 24.056 153.603 24.056C155.251 24.056 156.587 24.176 157.611 24.416C158.651 24.64 159.499 25.128 160.155 25.88C160.699 26.504 161.123 27.256 161.427 28.136C161.731 29.016 161.907 29.888 161.955 30.752H160.587C160.523 30.032 160.347 29.296 160.059 28.544C159.787 27.776 159.355 27.12 158.763 26.576C158.171 26.016 157.419 25.736 156.507 25.736C155.643 25.736 154.947 26.112 154.419 26.864C153.955 27.456 153.603 28.328 153.363 29.48C153.187 30.36 153.099 31.392 153.099 32.576C153.099 34.448 153.323 35.96 153.771 37.112C154.347 38.664 155.259 39.44 156.507 39.44ZM174.787 41.12C172.643 41.12 170.707 40.792 168.979 40.136C167.251 39.48 165.883 38.512 164.875 37.232C163.883 35.936 163.387 34.384 163.387 32.576C163.387 30.784 163.891 29.248 164.899 27.968C165.907 26.688 167.267 25.72 168.979 25.064C170.707 24.392 172.643 24.056 174.787 24.056C176.915 24.056 178.835 24.392 180.547 25.064C182.275 25.72 183.635 26.688 184.627 27.968C185.635 29.248 186.139 30.784 186.139 32.576C186.139 34.384 185.635 35.936 184.627 37.232C183.635 38.512 182.275 39.48 180.547 40.136C178.835 40.792 176.915 41.12 174.787 41.12ZM174.787 39.704C175.459 39.704 175.955 39.4 176.275 38.792C176.547 38.328 176.731 37.504 176.827 36.32C176.875 35.696 176.899 34.448 176.899 32.576C176.899 30.688 176.859 29.352 176.779 28.568C176.731 27.608 176.555 26.88 176.251 26.384C175.931 25.776 175.443 25.472 174.787 25.472C174.115 25.472 173.611 25.776 173.275 26.384C173.003 26.864 172.827 27.592 172.747 28.568C172.683 29.4 172.651 30.736 172.651 32.576C172.651 34.656 172.675 35.904 172.723 36.32C172.787 37.424 172.963 38.248 173.251 38.792C173.587 39.4 174.099 39.704 174.787 39.704ZM188.736 29.816V41H187.32V24.2H194.328L197.832 31.208L200.616 24.2H208.296V41H200.616V28.4L195.72 41H193.632L188.736 29.816ZM209.656 24.2H227.104V25.616H218.104V31.832H222.52V33.272H218.104V39.56H227.104V41H209.656V24.2ZM244.863 25.616H238.551V24.2H259.599V25.616H253.263V41H244.863V25.616ZM268.607 41.12C266.463 41.12 264.527 40.792 262.799 40.136C261.071 39.48 259.703 38.512 258.695 37.232C257.703 35.936 257.207 34.384 257.207 32.576C257.207 30.784 257.711 29.248 258.719 27.968C259.727 26.688 261.087 25.72 262.799 25.064C264.527 24.392 266.463 24.056 268.607 24.056C270.735 24.056 272.655 24.392 274.367 25.064C276.095 25.72 277.455 26.688 278.447 27.968C279.455 29.248 279.959 30.784 279.959 32.576C279.959 34.384 279.455 35.936 278.447 37.232C277.455 38.512 276.095 39.48 274.367 40.136C272.655 40.792 270.735 41.12 268.607 41.12ZM268.607 39.704C269.279 39.704 269.775 39.4 270.095 38.792C270.367 38.328 270.551 37.504 270.647 36.32C270.695 35.696 270.719 34.448 270.719 32.576C270.719 30.688 270.679 29.352 270.599 28.568C270.551 27.608 270.375 26.88 270.071 26.384C269.751 25.776 269.263 25.472 268.607 25.472C267.935 25.472 267.431 25.776 267.095 26.384C266.823 26.864 266.647 27.592 266.567 28.568C266.503 29.4 266.471 30.736 266.471 32.576C266.471 34.656 266.495 35.904 266.543 36.32C266.607 37.424 266.783 38.248 267.071 38.792C267.407 39.4 267.919 39.704 268.607 39.704ZM292.799 29.816V41H291.383V24.2H298.391L301.895 31.208L304.679 24.2H312.359V41H304.679V28.4L299.783 41H297.695L292.799 29.816ZM313.719 24.2H321.879V31.712H327.183V24.2H335.343V41H327.183V33.32H321.879V41H313.719V24.2ZM336.688 24.2H352.744C353.528 24.2 354.248 24.4 354.904 24.8C355.576 25.184 356.104 25.712 356.488 26.384C356.888 27.04 357.088 27.76 357.088 28.544C357.088 29.584 356.768 30.528 356.128 31.376C355.488 32.224 354.68 32.768 353.704 33.008C354.568 33.248 355.272 33.704 355.816 34.376C356.376 35.048 356.656 35.808 356.656 36.656V41H348.616V35.792C348.616 35.28 348.52 34.88 348.328 34.592C348.104 34.256 347.848 34.008 347.56 33.848C347.24 33.672 346.88 33.544 346.48 33.464C346.064 33.384 345.672 33.336 345.304 33.32L344.656 33.296V41H336.688V24.2ZM345.496 31.904C346.072 31.904 346.6 31.768 347.08 31.496C347.576 31.208 347.96 30.824 348.232 30.344C348.52 29.848 348.664 29.32 348.664 28.76C348.664 28.184 348.52 27.656 348.232 27.176C347.96 26.68 347.576 26.288 347.08 26C346.6 25.712 346.072 25.568 345.496 25.568H344.656V31.928L345.496 31.904ZM368.703 32.576C368.703 29.744 369.399 27.64 370.791 26.264C371.687 25.368 372.687 24.776 373.791 24.488C374.895 24.2 376.343 24.056 378.135 24.056C379.799 24.056 381.135 24.176 382.143 24.416C383.167 24.64 384.007 25.128 384.663 25.88C385.207 26.504 385.631 27.264 385.935 28.16C386.255 29.04 386.439 29.904 386.487 30.752H385.119C385.055 30.032 384.879 29.296 384.591 28.544C384.319 27.776 383.887 27.12 383.295 26.576C382.703 26.016 381.951 25.736 381.039 25.736C380.191 25.736 379.487 26.112 378.927 26.864C378.447 27.52 378.103 28.392 377.895 29.48C377.703 30.44 377.607 31.472 377.607 32.576C377.607 34.384 377.831 35.896 378.279 37.112C378.871 38.664 379.791 39.44 381.039 39.44V32.792H388.383V41C386.079 41 383.471 41.032 380.559 41.096L378.135 41.12C376.375 41.12 374.943 40.952 373.839 40.616C372.751 40.264 371.815 39.696 371.031 38.912C369.479 37.36 368.703 35.248 368.703 32.576ZM397.791 41.12C394.895 41.12 392.823 40.696 391.575 39.848C390.343 39 389.727 37.704 389.727 35.96V24.2H398.895V35.96C398.895 37.096 399.143 37.928 399.639 38.456C400.151 38.968 400.823 39.224 401.655 39.224C403.511 39.224 404.439 38.136 404.439 35.96V24.2H405.855V35.96C405.855 37.32 405.567 38.376 404.991 39.128C404.415 39.864 403.551 40.384 402.399 40.688C401.247 40.976 399.711 41.12 397.791 41.12ZM412.252 24.2H419.26L426.7 41H417.628L415.108 35.432H409.828L407.668 41H405.916L412.252 24.2ZM414.436 33.968L412.252 29.096L410.356 33.968H414.436ZM427.649 24.2H443.705C444.489 24.2 445.209 24.4 445.865 24.8C446.537 25.184 447.065 25.712 447.449 26.384C447.849 27.04 448.049 27.76 448.049 28.544C448.049 29.584 447.729 30.528 447.089 31.376C446.449 32.224 445.641 32.768 444.665 33.008C445.529 33.248 446.233 33.704 446.777 34.376C447.337 35.048 447.617 35.808 447.617 36.656V41H439.577V35.792C439.577 35.28 439.481 34.88 439.289 34.592C439.065 34.256 438.809 34.008 438.521 33.848C438.201 33.672 437.841 33.544 437.441 33.464C437.025 33.384 436.633 33.336 436.265 33.32L435.617 33.296V41H427.649V24.2ZM436.457 31.904C437.033 31.904 437.561 31.768 438.041 31.496C438.537 31.208 438.921 30.824 439.193 30.344C439.481 29.848 439.625 29.32 439.625 28.76C439.625 28.184 439.481 27.656 439.193 27.176C438.921 26.68 438.537 26.288 438.041 26C437.561 25.712 437.033 25.568 436.457 25.568H435.617V31.928L436.457 31.904ZM449.258 24.2H461.882C464.17 24.2 466.146 25.016 467.81 26.648C469.458 28.296 470.282 30.272 470.282 32.576C470.282 34.912 469.458 36.904 467.81 38.552C466.162 40.184 464.186 41 461.882 41H449.258V24.2ZM459.098 39.608C460.01 39.608 460.666 39.312 461.066 38.72C461.45 38.144 461.69 37.328 461.786 36.272C461.866 35.584 461.906 34.352 461.906 32.576C461.906 31.2 461.858 29.888 461.762 28.64C461.666 27.696 461.426 26.976 461.042 26.48C460.642 25.888 459.994 25.592 459.098 25.592H457.658V39.608H459.098ZM487.839 25.616H481.527V24.2H502.575V25.616H496.239V41H487.839V25.616ZM503.75 24.2H519.806C520.59 24.2 521.31 24.4 521.966 24.8C522.638 25.184 523.166 25.712 523.55 26.384C523.95 27.04 524.15 27.76 524.15 28.544C524.15 29.584 523.83 30.528 523.19 31.376C522.55 32.224 521.742 32.768 520.766 33.008C521.63 33.248 522.334 33.704 522.878 34.376C523.438 35.048 523.718 35.808 523.718 36.656V41H515.678V35.792C515.678 35.28 515.582 34.88 515.39 34.592C515.166 34.256 514.91 34.008 514.622 33.848C514.302 33.672 513.942 33.544 513.542 33.464C513.126 33.384 512.734 33.336 512.366 33.32L511.718 33.296V41H503.75V24.2ZM512.558 31.904C513.134 31.904 513.662 31.768 514.142 31.496C514.638 31.208 515.022 30.824 515.294 30.344C515.582 29.848 515.726 29.32 515.726 28.76C515.726 28.184 515.582 27.656 515.294 27.176C515.022 26.68 514.638 26.288 514.142 26C513.662 25.712 513.134 25.568 512.558 25.568H511.718V31.928L512.558 31.904ZM531.104 24.2H538.112L545.552 41H536.48L533.96 35.432H528.68L526.52 41H524.768L531.104 24.2ZM533.288 33.968L531.104 29.096L529.208 33.968H533.288ZM556.773 39.44C557.973 39.44 558.925 38.952 559.629 37.976C560.333 37 560.789 35.816 560.997 34.424H562.485C562.261 36.152 561.693 37.624 560.781 38.84C560.269 39.512 559.685 40.016 559.029 40.352C558.389 40.672 557.677 40.88 556.893 40.976C556.125 41.072 555.117 41.12 553.869 41.12C552.109 41.12 550.677 40.952 549.573 40.616C548.485 40.264 547.549 39.696 546.765 38.912C545.229 37.376 544.461 35.264 544.461 32.576C544.461 29.744 545.149 27.64 546.525 26.264C547.421 25.368 548.421 24.776 549.525 24.488C550.629 24.2 552.077 24.056 553.869 24.056C555.517 24.056 556.853 24.176 557.877 24.416C558.917 24.64 559.765 25.128 560.421 25.88C560.965 26.504 561.389 27.256 561.693 28.136C561.997 29.016 562.173 29.888 562.221 30.752H560.853C560.789 30.032 560.613 29.296 560.325 28.544C560.053 27.776 559.621 27.12 559.029 26.576C558.437 26.016 557.685 25.736 556.773 25.736C555.909 25.736 555.213 26.112 554.685 26.864C554.221 27.456 553.869 28.328 553.629 29.48C553.453 30.36 553.365 31.392 553.365 32.576C553.365 34.448 553.589 35.96 554.037 37.112C554.613 38.664 555.525 39.44 556.773 39.44ZM563.656 24.2H572.08V41H563.656V24.2ZM572.08 32.576L576.016 24.2H584.392L580.192 32.576L585.52 41H577.048L572.08 32.576ZM586.438 24.2H594.262V41H586.438V24.2ZM595.625 24.2H602.681L609.689 32.6V24.2H611.129V41H605.489L597.089 29.816V41H595.625V24.2ZM612.477 32.576C612.477 29.744 613.173 27.64 614.565 26.264C615.461 25.368 616.461 24.776 617.565 24.488C618.669 24.2 620.117 24.056 621.909 24.056C623.573 24.056 624.909 24.176 625.917 24.416C626.941 24.64 627.781 25.128 628.437 25.88C628.981 26.504 629.405 27.264 629.709 28.16C630.029 29.04 630.213 29.904 630.261 30.752H628.893C628.829 30.032 628.653 29.296 628.365 28.544C628.093 27.776 627.661 27.12 627.069 26.576C626.477 26.016 625.725 25.736 624.813 25.736C623.965 25.736 623.261 26.112 622.701 26.864C622.221 27.52 621.877 28.392 621.669 29.48C621.477 30.44 621.381 31.472 621.381 32.576C621.381 34.384 621.605 35.896 622.053 37.112C622.645 38.664 623.565 39.44 624.813 39.44V32.792H632.157V41C629.853 41 627.245 41.032 624.333 41.096L621.909 41.12C620.149 41.12 618.717 40.952 617.613 40.616C616.525 40.264 615.589 39.696 614.805 38.912C613.253 37.36 612.477 35.248 612.477 32.576Z" fill="#F5E79D"/>
</svg>
