<svg width="20" height="20" viewBox="0 0 20 20" fill="none" xmlns="http://www.w3.org/2000/svg">
<path d="M9.73466 5.24705C7.03885 5.24705 4.86439 7.42199 4.86439 10.1184C4.86439 12.8148 7.03885 14.9898 9.73466 14.9898C12.4305 14.9898 14.6049 12.8148 14.6049 10.1184C14.6049 7.42199 12.4305 5.24705 9.73466 5.24705ZM9.73466 13.2854C7.99255 13.2854 6.56835 11.8651 6.56835 10.1184C6.56835 8.37167 7.98832 6.95139 9.73466 6.95139C11.481 6.95139 12.901 8.37167 12.901 10.1184C12.901 11.8651 11.4768 13.2854 9.73466 13.2854ZM15.9401 5.04778C15.9401 5.67949 15.4315 6.18401 14.8042 6.18401C14.1726 6.18401 13.6682 5.67525 13.6682 5.04778C13.6682 4.42032 14.1768 3.91156 14.8042 3.91156C15.4315 3.91156 15.9401 4.42032 15.9401 5.04778ZM19.1658 6.20097C19.0937 4.67894 18.7462 3.33073 17.6314 2.21994C16.5208 1.10915 15.1729 0.761496 13.6512 0.685183C12.0829 0.59615 7.38218 0.59615 5.81386 0.685183C4.2964 0.757257 2.94849 1.10491 1.83372 2.2157C0.718936 3.32649 0.3756 4.6747 0.299304 6.19673C0.210291 7.7654 0.210291 12.4672 0.299304 14.0358C0.371362 15.5579 0.718936 16.9061 1.83372 18.0169C2.94849 19.1277 4.29216 19.4753 5.81386 19.5516C7.38218 19.6407 12.0829 19.6407 13.6512 19.5516C15.1729 19.4796 16.5208 19.1319 17.6314 18.0169C18.7419 16.9061 19.0895 15.5579 19.1658 14.0358C19.2548 12.4672 19.2548 7.76964 19.1658 6.20097ZM17.1397 15.719C16.8091 16.55 16.169 17.1901 15.334 17.5251C14.0836 18.0211 11.1165 17.9066 9.73466 17.9066C8.35284 17.9066 5.38151 18.0169 4.13533 17.5251C3.30455 17.1944 2.6645 16.5542 2.32964 15.719C1.83372 14.4683 1.94816 11.5005 1.94816 10.1184C1.94816 8.73628 1.83795 5.76429 2.32964 4.51783C2.66026 3.68686 3.30031 3.04667 4.13533 2.71174C5.38575 2.2157 8.35284 2.33017 9.73466 2.33017C11.1165 2.33017 14.0878 2.21994 15.334 2.71174C16.1648 3.04243 16.8048 3.68262 17.1397 4.51783C17.6356 5.76853 17.5212 8.73628 17.5212 10.1184C17.5212 11.5005 17.6356 14.4725 17.1397 15.719Z" fill="white"/>
</svg>
