<svg width="34" height="41" viewBox="0 0 34 41" fill="none" xmlns="http://www.w3.org/2000/svg">
<path d="M16.824 20.6692C17.9716 20.6692 18.9543 20.2767 19.7722 19.4918C20.5901 18.7068 20.9984 17.7643 20.997 16.6643C20.997 15.5629 20.5881 14.6198 19.7701 13.8348C18.9522 13.0498 17.9702 12.658 16.824 12.6593C15.6764 12.6593 14.6936 13.0518 13.8757 13.8368C13.0578 14.6218 12.6496 15.5643 12.6509 16.6643C12.6509 17.7656 13.0599 18.7088 13.8778 19.4938C14.6957 20.2787 15.6778 20.6706 16.824 20.6692ZM16.824 35.3874C21.0666 31.6494 24.2137 28.2532 26.2655 25.1988C28.3172 22.1444 29.3431 19.433 29.3431 17.0648C29.3431 13.427 28.1343 10.4486 25.7167 8.12976C23.2991 5.8109 20.3349 4.6508 16.824 4.64947C13.3117 4.64947 10.3467 5.80957 7.92915 8.12976C5.51157 10.45 4.30348 13.4283 4.30487 17.0648C4.30487 19.4344 5.33074 22.1464 7.38248 25.2008C9.43423 28.2552 12.5814 31.6508 16.824 35.3874ZM16.824 40.6939C11.2252 36.1216 7.04377 31.875 4.27983 27.9542C1.51589 24.0334 0.133227 20.4036 0.131836 17.0648C0.131836 12.0586 1.81009 8.07035 5.1666 5.10002C8.52312 2.1297 12.4089 0.644531 16.824 0.644531C21.2404 0.644531 25.1269 2.1297 28.4834 5.10002C31.84 8.07035 33.5175 12.0586 33.5161 17.0648C33.5161 20.4022 32.1335 24.032 29.3681 27.9542C26.6028 31.8764 22.4214 36.1229 16.824 40.6939Z" fill="black"/>
</svg>
