<svg width="599" height="106" viewBox="0 0 599 106" fill="none" xmlns="http://www.w3.org/2000/svg">
<rect x="0.887451" width="597.585" height="106" fill="#332A5D"/>
<path d="M31.344 73C31.376 72.488 31.392 71.624 31.392 70.408C31.424 69.16 31.44 67.704 31.44 66.04C31.44 64.344 31.44 62.488 31.44 60.472C31.44 58.456 31.44 56.392 31.44 54.28C31.44 52.168 31.44 50.072 31.44 47.992C31.44 45.88 31.44 43.912 31.44 42.088C31.44 40.264 31.424 38.632 31.392 37.192C31.392 35.752 31.376 34.616 31.344 33.784C32.592 33.784 33.968 33.784 35.472 33.784C36.976 33.752 38.512 33.736 40.08 33.736C41.648 33.704 43.184 33.672 44.688 33.64C46.192 33.608 47.6 33.576 48.912 33.544C48.944 34.024 48.96 34.488 48.96 34.936C48.96 35.384 48.96 35.832 48.96 36.28C48.96 37.208 48.944 38.168 48.912 39.16C48.88 40.152 48.832 41.144 48.768 42.136H39.12V49.336H47.136V57.496H39.12C39.12 59.096 39.12 60.68 39.12 62.248C39.152 63.816 39.168 65.288 39.168 66.664C39.2 68.04 39.232 69.288 39.264 70.408C39.296 71.496 39.328 72.36 39.36 73H31.344ZM67.7903 73.144C66.8943 73.112 65.7103 73.08 64.2383 73.048C62.7663 73.048 61.1823 73.032 59.4863 73C57.8223 73 56.1423 73 54.4463 73C52.7823 73 51.3103 73 50.0303 73C50.0623 72.328 50.0783 71.432 50.0783 70.312C50.1103 69.192 50.1263 67.912 50.1263 66.472C50.1263 65.032 50.1263 63.48 50.1263 61.816C50.1263 60.12 50.1263 58.376 50.1263 56.584C50.1263 54.152 50.1103 51.72 50.0783 49.288C50.0783 46.856 50.0783 44.6 50.0783 42.52C50.0783 40.408 50.0623 38.584 50.0303 37.048C50.0303 35.512 50.0303 34.424 50.0303 33.784C51.2783 33.784 52.6543 33.784 54.1583 33.784C55.6623 33.784 57.1983 33.784 58.7663 33.784C60.3343 33.752 61.8703 33.72 63.3743 33.688C64.8783 33.656 66.2863 33.624 67.5983 33.592C67.5983 34.008 67.5983 34.376 67.5983 34.696C67.6303 34.984 67.6463 35.4 67.6463 35.944C67.6463 36.328 67.6303 36.792 67.5983 37.336C67.5983 37.848 67.5823 38.392 67.5503 38.968C67.5503 39.512 67.5343 40.072 67.5023 40.648C67.5023 41.192 67.4863 41.704 67.4543 42.184H57.8063V47.752H66.2063V54.904H57.8063V60.28H67.5983C67.6303 61.016 67.6623 61.768 67.6943 62.536C67.7263 63.304 67.7423 64.168 67.7423 65.128C67.7743 66.088 67.7903 67.224 67.7903 68.536C67.7903 69.816 67.7903 71.352 67.7903 73.144ZM86.9921 73.144C86.0961 73.112 84.9121 73.08 83.4401 73.048C81.9681 73.048 80.3841 73.032 78.6881 73C77.0241 73 75.3441 73 73.6481 73C71.9841 73 70.5121 73 69.2321 73C69.2641 72.328 69.2801 71.432 69.2801 70.312C69.3121 69.192 69.3281 67.912 69.3281 66.472C69.3281 65.032 69.3281 63.48 69.3281 61.816C69.3281 60.12 69.3281 58.376 69.3281 56.584C69.3281 54.152 69.3121 51.72 69.2801 49.288C69.2801 46.856 69.2801 44.6 69.2801 42.52C69.2801 40.408 69.2641 38.584 69.2321 37.048C69.2321 35.512 69.2321 34.424 69.2321 33.784C70.4801 33.784 71.8561 33.784 73.3601 33.784C74.8641 33.784 76.4001 33.784 77.9681 33.784C79.5361 33.752 81.0721 33.72 82.5761 33.688C84.0801 33.656 85.4881 33.624 86.8001 33.592C86.8001 34.008 86.8001 34.376 86.8001 34.696C86.8321 34.984 86.8481 35.4 86.8481 35.944C86.8481 36.328 86.8321 36.792 86.8001 37.336C86.8001 37.848 86.7841 38.392 86.7521 38.968C86.7521 39.512 86.7361 40.072 86.7041 40.648C86.7041 41.192 86.6881 41.704 86.6561 42.184H77.0081V47.752H85.4081V54.904H77.0081V60.28H86.8001C86.8321 61.016 86.8641 61.768 86.8961 62.536C86.9281 63.304 86.9441 64.168 86.9441 65.128C86.9761 66.088 86.9921 67.224 86.9921 68.536C86.9921 69.816 86.9921 71.352 86.9921 73.144ZM96.69 33.736C96.594 38.12 96.514 41.736 96.45 44.584C96.418 47.432 96.386 49.832 96.354 51.784C96.322 53.704 96.306 55.32 96.306 56.632C96.306 57.944 96.306 59.272 96.306 60.616L103.842 60.328C103.906 61.384 103.954 62.424 103.986 63.448C104.018 64.472 104.034 65.496 104.034 66.52C104.034 67.576 104.018 68.648 103.986 69.736C103.954 70.792 103.906 71.88 103.842 73H88.338C88.434 68.52 88.498 63.928 88.53 59.224C88.594 54.52 88.626 49.928 88.626 45.448C88.626 43.368 88.626 41.352 88.626 39.4C88.626 37.448 88.61 35.56 88.578 33.736H96.69ZM109.822 73C109.854 72.488 109.87 71.624 109.87 70.408C109.902 69.16 109.918 67.704 109.918 66.04C109.918 64.344 109.918 62.488 109.918 60.472C109.918 58.456 109.918 56.392 109.918 54.28C109.918 52.168 109.918 50.072 109.918 47.992C109.918 45.88 109.918 43.912 109.918 42.088C109.918 40.264 109.902 38.632 109.87 37.192C109.87 35.752 109.854 34.616 109.822 33.784C111.07 33.784 112.446 33.784 113.95 33.784C115.454 33.752 116.99 33.736 118.558 33.736C120.126 33.704 121.662 33.672 123.166 33.64C124.67 33.608 126.078 33.576 127.39 33.544C127.422 34.024 127.438 34.488 127.438 34.936C127.438 35.384 127.438 35.832 127.438 36.28C127.438 37.208 127.422 38.168 127.39 39.16C127.358 40.152 127.31 41.144 127.246 42.136H117.598V49.336H125.614V57.496H117.598C117.598 59.096 117.598 60.68 117.598 62.248C117.63 63.816 117.646 65.288 117.646 66.664C117.678 68.04 117.71 69.288 117.742 70.408C117.774 71.496 117.806 72.36 117.838 73H109.822ZM128.46 73C128.556 69.96 128.62 66.936 128.652 63.928C128.684 60.888 128.7 58.008 128.7 55.288C128.7 51.416 128.668 47.736 128.604 44.248C128.572 40.76 128.524 37.256 128.46 33.736C130.028 33.576 131.596 33.448 133.164 33.352C134.764 33.224 136.38 33.16 138.012 33.16C140.348 33.16 142.54 33.336 144.588 33.688C146.636 34.008 148.412 34.632 149.916 35.56C151.42 36.456 152.604 37.704 153.468 39.304C154.364 40.904 154.812 42.968 154.812 45.496C154.812 48.632 154.156 51.096 152.844 52.888C151.564 54.68 149.82 56.024 147.612 56.92L155.436 73H146.892L140.508 58.36C139.196 58.456 137.836 58.504 136.428 58.504C136.428 60.968 136.444 63.384 136.476 65.752C136.508 68.12 136.604 70.536 136.764 73H128.46ZM136.428 51.208C137.42 51.304 138.332 51.352 139.164 51.352C141.34 51.352 142.876 50.952 143.772 50.152C144.7 49.32 145.164 48.088 145.164 46.456C145.164 45.464 145.02 44.664 144.732 44.056C144.476 43.448 144.108 42.968 143.628 42.616C143.18 42.264 142.636 42.024 141.996 41.896C141.388 41.768 140.732 41.704 140.028 41.704C139.516 41.704 138.94 41.736 138.3 41.8C137.692 41.832 137.068 41.896 136.428 41.992V51.208ZM173.814 73.144C172.918 73.112 171.734 73.08 170.262 73.048C168.79 73.048 167.206 73.032 165.51 73C163.846 73 162.166 73 160.47 73C158.806 73 157.334 73 156.054 73C156.086 72.328 156.102 71.432 156.102 70.312C156.134 69.192 156.15 67.912 156.15 66.472C156.15 65.032 156.15 63.48 156.15 61.816C156.15 60.12 156.15 58.376 156.15 56.584C156.15 54.152 156.134 51.72 156.102 49.288C156.102 46.856 156.102 44.6 156.102 42.52C156.102 40.408 156.086 38.584 156.054 37.048C156.054 35.512 156.054 34.424 156.054 33.784C157.302 33.784 158.678 33.784 160.182 33.784C161.686 33.784 163.222 33.784 164.79 33.784C166.358 33.752 167.894 33.72 169.398 33.688C170.902 33.656 172.31 33.624 173.622 33.592C173.622 34.008 173.622 34.376 173.622 34.696C173.654 34.984 173.67 35.4 173.67 35.944C173.67 36.328 173.654 36.792 173.622 37.336C173.622 37.848 173.606 38.392 173.574 38.968C173.574 39.512 173.558 40.072 173.526 40.648C173.526 41.192 173.51 41.704 173.478 42.184H163.83V47.752H172.23V54.904H163.83V60.28H173.622C173.654 61.016 173.686 61.768 173.718 62.536C173.75 63.304 173.766 64.168 173.766 65.128C173.798 66.088 173.814 67.224 173.814 68.536C173.814 69.816 173.814 71.352 173.814 73.144ZM193.016 73.144C192.12 73.112 190.936 73.08 189.464 73.048C187.992 73.048 186.408 73.032 184.712 73C183.048 73 181.368 73 179.672 73C178.008 73 176.536 73 175.256 73C175.288 72.328 175.304 71.432 175.304 70.312C175.336 69.192 175.352 67.912 175.352 66.472C175.352 65.032 175.352 63.48 175.352 61.816C175.352 60.12 175.352 58.376 175.352 56.584C175.352 54.152 175.336 51.72 175.304 49.288C175.304 46.856 175.304 44.6 175.304 42.52C175.304 40.408 175.288 38.584 175.256 37.048C175.256 35.512 175.256 34.424 175.256 33.784C176.504 33.784 177.88 33.784 179.384 33.784C180.888 33.784 182.424 33.784 183.992 33.784C185.56 33.752 187.096 33.72 188.6 33.688C190.104 33.656 191.512 33.624 192.824 33.592C192.824 34.008 192.824 34.376 192.824 34.696C192.856 34.984 192.872 35.4 192.872 35.944C192.872 36.328 192.856 36.792 192.824 37.336C192.824 37.848 192.808 38.392 192.776 38.968C192.776 39.512 192.76 40.072 192.728 40.648C192.728 41.192 192.712 41.704 192.68 42.184H183.032V47.752H191.432V54.904H183.032V60.28H192.824C192.856 61.016 192.888 61.768 192.92 62.536C192.952 63.304 192.968 64.168 192.968 65.128C193 66.088 193.016 67.224 193.016 68.536C193.016 69.816 193.016 71.352 193.016 73.144ZM222.367 42.616H216.847C216.783 45.464 216.735 48.36 216.703 51.304C216.671 54.216 216.655 57.368 216.655 60.76C216.655 62.936 216.655 64.696 216.655 66.04C216.655 67.352 216.655 68.44 216.655 69.304C216.655 70.136 216.655 70.824 216.655 71.368C216.687 71.88 216.703 72.424 216.703 73H208.639C208.671 71.592 208.703 70.136 208.735 68.632C208.767 67.096 208.783 65.448 208.783 63.688C208.815 61.896 208.831 59.976 208.831 57.928C208.863 55.848 208.879 53.56 208.879 51.064C208.879 49.24 208.879 47.656 208.879 46.312C208.879 44.968 208.863 43.736 208.831 42.616H203.311V33.736H222.367V42.616ZM236.061 33.16C240.829 33.16 244.349 34.856 246.621 38.248C248.893 41.64 250.029 46.568 250.029 53.032C250.029 59.592 248.909 64.648 246.669 68.2C244.461 71.752 240.925 73.528 236.061 73.528C233.661 73.528 231.581 73.08 229.821 72.184C228.061 71.256 226.605 69.928 225.453 68.2C224.301 66.44 223.453 64.296 222.909 61.768C222.365 59.208 222.093 56.296 222.093 53.032C222.093 46.472 223.229 41.528 225.501 38.2C227.773 34.84 231.293 33.16 236.061 33.16ZM236.061 61.144C237.085 61.144 237.981 60.92 238.749 60.472C239.549 59.992 240.205 59.352 240.717 58.552C241.229 57.72 241.613 56.744 241.869 55.624C242.125 54.472 242.253 53.208 242.253 51.832C242.253 50.456 242.125 49.192 241.869 48.04C241.613 46.856 241.229 45.832 240.717 44.968C240.205 44.104 239.549 43.432 238.749 42.952C237.981 42.472 237.085 42.232 236.061 42.232C235.037 42.232 234.141 42.488 233.373 43C232.637 43.48 231.997 44.152 231.453 45.016C230.941 45.88 230.557 46.904 230.301 48.088C230.045 49.24 229.917 50.488 229.917 51.832C229.917 53.208 230.045 54.472 230.301 55.624C230.557 56.744 230.941 57.72 231.453 58.552C231.997 59.352 232.637 59.992 233.373 60.472C234.141 60.92 235.037 61.144 236.061 61.144ZM273.762 33.16C274.914 33.16 275.906 33.24 276.738 33.4C277.602 33.528 278.402 33.72 279.138 33.976C279.138 34.52 279.138 35.096 279.138 35.704C279.17 36.312 279.186 36.968 279.186 37.672C279.186 38.376 279.17 39.128 279.138 39.928C279.138 40.696 279.138 41.416 279.138 42.088C277.922 41.32 276.466 40.936 274.77 40.936C273.17 40.936 271.826 41.24 270.738 41.848C269.682 42.424 268.818 43.176 268.146 44.104C267.506 45.032 267.042 46.056 266.754 47.176C266.498 48.264 266.37 49.304 266.37 50.296C266.37 51.64 266.578 52.904 266.994 54.088C267.41 55.272 267.986 56.312 268.722 57.208C269.49 58.072 270.37 58.76 271.362 59.272C272.386 59.784 273.49 60.04 274.674 60.04C275.218 60.04 275.906 59.96 276.738 59.8C277.602 59.64 278.402 59.336 279.138 58.888C279.138 60.008 279.138 61.176 279.138 62.392C279.17 63.608 279.186 64.792 279.186 65.944C279.186 67.16 279.17 68.344 279.138 69.496C279.138 70.648 279.138 71.8 279.138 72.952C277.346 73.336 275.522 73.528 273.666 73.528C270.85 73.528 268.322 73.064 266.082 72.136C263.874 71.208 261.986 69.88 260.418 68.152C258.882 66.392 257.698 64.28 256.866 61.816C256.066 59.32 255.666 56.536 255.666 53.464C255.666 50.52 256.05 47.816 256.818 45.352C257.586 42.856 258.722 40.712 260.226 38.92C261.762 37.096 263.65 35.688 265.89 34.696C268.162 33.672 270.786 33.16 273.762 33.16ZM293.433 33.16C298.201 33.16 301.721 34.856 303.993 38.248C306.265 41.64 307.401 46.568 307.401 53.032C307.401 59.592 306.281 64.648 304.041 68.2C301.833 71.752 298.297 73.528 293.433 73.528C291.033 73.528 288.953 73.08 287.193 72.184C285.433 71.256 283.977 69.928 282.825 68.2C281.673 66.44 280.825 64.296 280.281 61.768C279.737 59.208 279.465 56.296 279.465 53.032C279.465 46.472 280.601 41.528 282.873 38.2C285.145 34.84 288.665 33.16 293.433 33.16ZM293.433 61.144C294.457 61.144 295.353 60.92 296.121 60.472C296.921 59.992 297.577 59.352 298.089 58.552C298.601 57.72 298.985 56.744 299.241 55.624C299.497 54.472 299.625 53.208 299.625 51.832C299.625 50.456 299.497 49.192 299.241 48.04C298.985 46.856 298.601 45.832 298.089 44.968C297.577 44.104 296.921 43.432 296.121 42.952C295.353 42.472 294.457 42.232 293.433 42.232C292.409 42.232 291.513 42.488 290.745 43C290.009 43.48 289.369 44.152 288.825 45.016C288.313 45.88 287.929 46.904 287.673 48.088C287.417 49.24 287.289 50.488 287.289 51.832C287.289 53.208 287.417 54.472 287.673 55.624C287.929 56.744 288.313 57.72 288.825 58.552C289.369 59.352 290.009 59.992 290.745 60.472C291.513 60.92 292.409 61.144 293.433 61.144ZM327.772 33.736H334.636C334.54 40.264 334.492 46.808 334.492 53.368C334.492 59.928 334.54 66.472 334.636 73H325.372L315.196 49.528V73H308.62C308.684 69.704 308.732 66.44 308.764 63.208C308.796 59.944 308.812 56.664 308.812 53.368C308.812 50.072 308.796 46.808 308.764 43.576C308.732 40.312 308.684 37.032 308.62 33.736H318.316L327.772 57.16V33.736ZM354.828 42.616H349.308C349.244 45.464 349.196 48.36 349.164 51.304C349.132 54.216 349.116 57.368 349.116 60.76C349.116 62.936 349.116 64.696 349.116 66.04C349.116 67.352 349.116 68.44 349.116 69.304C349.116 70.136 349.116 70.824 349.116 71.368C349.148 71.88 349.164 72.424 349.164 73H341.1C341.132 71.592 341.164 70.136 341.196 68.632C341.228 67.096 341.244 65.448 341.244 63.688C341.276 61.896 341.292 59.976 341.292 57.928C341.324 55.848 341.34 53.56 341.34 51.064C341.34 49.24 341.34 47.656 341.34 46.312C341.34 44.968 341.324 43.736 341.292 42.616H335.772V33.736H354.828V42.616ZM352.098 73L359.202 33.736H371.058L378.114 73H370.002L368.802 65.128H361.41L360.258 73H352.098ZM362.706 56.536H367.506L365.106 40.696L362.706 56.536ZM394.849 33.16C396.001 33.16 396.993 33.24 397.825 33.4C398.689 33.528 399.489 33.72 400.225 33.976C400.225 34.52 400.225 35.096 400.225 35.704C400.257 36.312 400.273 36.968 400.273 37.672C400.273 38.376 400.257 39.128 400.225 39.928C400.225 40.696 400.225 41.416 400.225 42.088C399.009 41.32 397.553 40.936 395.857 40.936C394.257 40.936 392.913 41.24 391.825 41.848C390.769 42.424 389.905 43.176 389.233 44.104C388.593 45.032 388.129 46.056 387.841 47.176C387.585 48.264 387.457 49.304 387.457 50.296C387.457 51.64 387.665 52.904 388.081 54.088C388.497 55.272 389.073 56.312 389.809 57.208C390.577 58.072 391.457 58.76 392.449 59.272C393.473 59.784 394.577 60.04 395.761 60.04C396.305 60.04 396.993 59.96 397.825 59.8C398.689 59.64 399.489 59.336 400.225 58.888C400.225 60.008 400.225 61.176 400.225 62.392C400.257 63.608 400.273 64.792 400.273 65.944C400.273 67.16 400.257 68.344 400.225 69.496C400.225 70.648 400.225 71.8 400.225 72.952C398.433 73.336 396.609 73.528 394.753 73.528C391.937 73.528 389.409 73.064 387.169 72.136C384.961 71.208 383.073 69.88 381.505 68.152C379.969 66.392 378.785 64.28 377.953 61.816C377.153 59.32 376.753 56.536 376.753 53.464C376.753 50.52 377.137 47.816 377.905 45.352C378.673 42.856 379.809 40.712 381.313 38.92C382.849 37.096 384.737 35.688 386.977 34.696C389.249 33.672 391.873 33.16 394.849 33.16ZM419.887 42.616H414.367C414.303 45.464 414.255 48.36 414.223 51.304C414.191 54.216 414.175 57.368 414.175 60.76C414.175 62.936 414.175 64.696 414.175 66.04C414.175 67.352 414.175 68.44 414.175 69.304C414.175 70.136 414.175 70.824 414.175 71.368C414.207 71.88 414.223 72.424 414.223 73H406.159C406.191 71.592 406.223 70.136 406.255 68.632C406.287 67.096 406.303 65.448 406.303 63.688C406.335 61.896 406.351 59.976 406.351 57.928C406.383 55.848 406.399 53.56 406.399 51.064C406.399 49.24 406.399 47.656 406.399 46.312C406.399 44.968 406.383 43.736 406.351 42.616H400.831V33.736H419.887V42.616ZM448.993 48.952L442.801 71.32H438.337L432.529 49.576C432.561 53.48 432.625 57.416 432.721 61.384C432.849 65.352 432.945 69.224 433.009 73H425.425C425.489 69.704 425.537 66.44 425.569 63.208C425.601 59.944 425.617 56.664 425.617 53.368C425.617 50.072 425.601 46.808 425.569 43.576C425.537 40.312 425.489 37.032 425.425 33.736H435.697L440.785 56.248L446.497 33.736H456.193C456.097 40.264 456.049 46.808 456.049 53.368C456.049 59.928 456.097 66.472 456.193 73H448.513L448.993 48.952ZM475.935 73.144C475.039 73.112 473.855 73.08 472.383 73.048C470.911 73.048 469.327 73.032 467.631 73C465.967 73 464.287 73 462.591 73C460.927 73 459.455 73 458.175 73C458.207 72.328 458.223 71.432 458.223 70.312C458.255 69.192 458.271 67.912 458.271 66.472C458.271 65.032 458.271 63.48 458.271 61.816C458.271 60.12 458.271 58.376 458.271 56.584C458.271 54.152 458.255 51.72 458.223 49.288C458.223 46.856 458.223 44.6 458.223 42.52C458.223 40.408 458.207 38.584 458.175 37.048C458.175 35.512 458.175 34.424 458.175 33.784C459.423 33.784 460.799 33.784 462.303 33.784C463.807 33.784 465.343 33.784 466.911 33.784C468.479 33.752 470.015 33.72 471.519 33.688C473.023 33.656 474.431 33.624 475.743 33.592C475.743 34.008 475.743 34.376 475.743 34.696C475.775 34.984 475.791 35.4 475.791 35.944C475.791 36.328 475.775 36.792 475.743 37.336C475.743 37.848 475.727 38.392 475.695 38.968C475.695 39.512 475.679 40.072 475.647 40.648C475.647 41.192 475.631 41.704 475.599 42.184H465.951V47.752H474.351V54.904H465.951V60.28H475.743C475.775 61.016 475.807 61.768 475.839 62.536C475.871 63.304 475.887 64.168 475.887 65.128C475.919 66.088 475.935 67.224 475.935 68.536C475.935 69.816 475.935 71.352 475.935 73.144Z" fill="white"/>
<path d="M530.739 31.282L534.554 28.791C536.169 27.7363 538.781 27.7363 540.38 28.791L573.788 50.5925C575.404 51.6472 575.404 53.3528 573.788 54.3963L540.38 76.209C538.764 77.2637 536.152 77.2637 534.554 76.209L530.739 73.718C529.106 72.652 529.14 70.9129 530.807 69.8694L551.516 56.9882H502.125C499.839 56.9882 498 55.7876 498 54.2953V50.7047C498 49.2124 499.839 48.0118 502.125 48.0118H551.516L530.807 35.1306C529.123 34.0871 529.089 32.348 530.739 31.282Z" fill="white"/>
</svg>
