<svg width="41" height="40" viewBox="0 0 41 40" fill="none" xmlns="http://www.w3.org/2000/svg">
<path d="M24.2172 3.28541C24.2716 3.09023 24.3655 2.90725 24.4936 2.74693C24.6217 2.58661 24.7815 2.45208 24.9638 2.35103C25.1461 2.24999 25.3473 2.18441 25.5561 2.15803C25.7648 2.13166 25.9769 2.14502 26.1802 2.19734C29.1509 2.9412 31.8613 4.43162 34.0323 6.51509C36.2032 8.59856 37.7562 11.1998 38.5313 14.0508C38.5858 14.2459 38.5997 14.4495 38.5722 14.6498C38.5447 14.8501 38.4764 15.0432 38.3711 15.2182C38.2658 15.3932 38.1257 15.5465 37.9586 15.6694C37.7916 15.7924 37.6009 15.8825 37.3975 15.9347C37.2622 15.9688 37.1228 15.9863 36.9829 15.9866C36.6298 15.9866 36.2865 15.8747 36.0065 15.6682C35.7265 15.4617 35.5254 15.1722 35.4345 14.8447C34.8023 12.5173 33.5349 10.3938 31.7628 8.69313C29.9907 6.99242 27.778 5.77603 25.3529 5.16935C25.1494 5.11735 24.9585 5.02735 24.7912 4.90449C24.624 4.78164 24.4836 4.62834 24.3781 4.45336C24.2726 4.27838 24.2041 4.08516 24.1765 3.88476C24.1489 3.68435 24.1627 3.48068 24.2172 3.28541ZM23.7505 11.321C26.5127 12.0284 28.2875 13.7317 29.0246 16.3826C29.1155 16.7101 29.3166 16.9996 29.5966 17.2061C29.8766 17.4126 30.2199 17.5245 30.573 17.5245C30.7129 17.5242 30.8523 17.5068 30.9876 17.4726C31.191 17.4204 31.3817 17.3303 31.5487 17.2073C31.7158 17.0844 31.8559 16.9311 31.9612 16.7561C32.0665 16.5812 32.1349 16.388 32.1623 16.1877C32.1898 15.9874 32.1759 15.7838 32.1214 15.5887C31.0958 11.9054 28.4157 9.33324 24.5777 8.34898C24.3744 8.29685 24.1624 8.28366 23.9537 8.31018C23.7451 8.33669 23.5439 8.40239 23.3617 8.50352C23.1795 8.60464 23.0199 8.73922 22.8919 8.89956C22.7639 9.0599 22.67 9.24287 22.6157 9.43801C22.5614 9.63316 22.5476 9.83666 22.5753 10.0369C22.6029 10.2371 22.6714 10.4302 22.7767 10.605C22.8821 10.7799 23.0223 10.9331 23.1894 11.056C23.3565 11.1788 23.5471 11.2689 23.7505 11.321ZM40.1638 29.651C39.8066 32.2559 38.4736 34.6469 36.4138 36.3775C34.354 38.1082 31.7082 39.06 28.9705 39.0553C13.066 39.0553 0.125995 26.6367 0.125995 11.3729C0.121087 8.74555 1.11289 6.20633 2.91617 4.22948C4.71944 2.25264 7.21087 0.973365 9.92512 0.63059C10.6115 0.550159 11.3065 0.68492 11.9066 1.01476C12.5066 1.34459 12.9793 1.85182 13.2543 2.4607L17.4848 11.5248V11.5478C17.6953 12.0139 17.7822 12.5228 17.7378 13.029C17.6934 13.5352 17.5191 14.023 17.2304 14.4487C17.1943 14.5006 17.1563 14.5487 17.1162 14.5967L12.9458 19.3412C14.4461 22.2671 17.635 25.3006 20.7238 26.7443L25.5993 22.763C25.6472 22.7244 25.6974 22.6885 25.7495 22.6554C26.1928 22.3717 26.7028 22.1985 27.2334 22.1515C27.7639 22.1045 28.2983 22.1852 28.7882 22.3863L28.8143 22.3978L38.2508 26.456C38.8864 26.7189 39.4162 27.1722 39.761 27.7481C40.1059 28.324 40.2471 28.9916 40.1638 29.651ZM36.9829 29.2665H36.9608L27.5463 25.2199L22.6688 29.2011C22.6215 29.2396 22.572 29.2755 22.5206 29.3088C22.0594 29.6041 21.5262 29.7795 20.9733 29.8179C20.4203 29.8563 19.8664 29.7564 19.3657 29.5279C15.6139 27.7882 11.8741 24.226 10.0593 20.6638C9.81901 20.1868 9.71118 19.6583 9.74627 19.1295C9.78137 18.6007 9.9582 18.0896 10.2596 17.6456C10.2936 17.5935 10.3318 17.544 10.3738 17.4976L14.5483 12.7474L10.3418 3.71218C10.341 3.70451 10.341 3.69678 10.3418 3.68911C8.39927 3.93229 6.61577 4.8467 5.32524 6.2611C4.03472 7.6755 3.32569 9.49288 3.33094 11.3729C3.33836 17.8968 6.04205 24.1514 10.8488 28.7645C15.6555 33.3776 22.1728 35.9723 28.9705 35.9795C30.9283 35.9859 32.8214 35.3078 34.2961 34.072C35.7707 32.8362 36.7258 31.1272 36.9829 29.2646V29.2665Z" fill="black"/>
</svg>
