<svg width="20" height="20" viewBox="0 0 20 20" fill="none" xmlns="http://www.w3.org/2000/svg">
<path d="M17.8462 0.618408H2.91767C1.79379 0.618408 0.881958 1.53024 0.881958 2.65412V17.5827C0.881958 18.7066 1.79379 19.6184 2.91767 19.6184H17.8462C18.9701 19.6184 19.882 18.7066 19.882 17.5827V2.65412C19.882 1.53024 18.9701 0.618408 17.8462 0.618408ZM15.7724 7.35323C15.7808 7.47198 15.7808 7.59497 15.7808 7.71372C15.7808 11.3907 12.9817 15.6276 7.867 15.6276C6.28932 15.6276 4.82615 15.1695 3.59624 14.3807C3.82102 14.4061 4.03732 14.4146 4.26633 14.4146C5.56834 14.4146 6.76432 13.9735 7.71856 13.2271C6.49714 13.2017 5.4708 12.4001 5.11879 11.2974C5.54714 11.361 5.93307 11.361 6.37415 11.2465C5.10182 10.9878 4.14758 9.86818 4.14758 8.51528V8.48135C4.51656 8.68917 4.94915 8.8164 5.40294 8.83336C5.02143 8.57959 4.70867 8.23532 4.49258 7.83126C4.27649 7.42721 4.1638 6.97594 4.16455 6.51774C4.16455 6.00033 4.30026 5.52533 4.542 5.11394C5.91187 6.80189 7.96879 7.90457 10.2759 8.02332C9.88151 6.13604 11.2938 4.60502 12.9902 4.60502C13.7918 4.60502 14.5128 4.94006 15.0217 5.48292C15.6494 5.36417 16.2516 5.13091 16.786 4.81283C16.5782 5.45747 16.1413 6.00033 15.5645 6.34385C16.1244 6.28448 16.6672 6.12756 17.1677 5.91127C16.7902 6.46685 16.3152 6.95881 15.7724 7.35323Z" fill="white"/>
</svg>
