<svg width="20" height="20" viewBox="0 0 20 20" fill="none" xmlns="http://www.w3.org/2000/svg">
<path d="M9.73297 4.4693C6.64971 4.4693 4.14324 6.97577 4.139 10.059C4.139 11.1151 4.43587 12.1456 4.99569 13.032L5.12717 13.2441L4.5631 15.3052L6.6794 14.7497L6.88297 14.8726C7.73967 15.3816 8.7236 15.653 9.72873 15.653H9.73297C12.812 15.653 15.3863 13.1465 15.3863 10.0633C15.3863 8.57042 14.7417 7.16662 13.6856 6.1106C12.6254 5.05033 11.2258 4.4693 9.73297 4.4693ZM13.0198 12.4595C12.8798 12.8539 12.2098 13.2101 11.8874 13.2568C11.3531 13.3374 10.9374 13.295 9.87293 12.8369C8.18922 12.1075 7.08654 10.411 7.00172 10.3008C6.9169 10.1905 6.31467 9.38894 6.31467 8.56193C6.31467 7.73493 6.74726 7.32778 6.90418 7.15814C7.05685 6.9885 7.23922 6.94609 7.35373 6.94609C7.464 6.94609 7.57851 6.94609 7.67605 6.95033C7.77784 6.95457 7.91779 6.91216 8.05351 7.23872C8.19346 7.57377 8.52851 8.40077 8.57092 8.4856C8.61333 8.57042 8.64302 8.66796 8.58364 8.77823C8.26132 9.42287 7.91779 9.39743 8.09168 9.6943C8.74056 10.8097 9.38944 11.1956 10.3776 11.6918C10.5473 11.7767 10.6448 11.7639 10.7423 11.6494C10.8399 11.5392 11.1622 11.1575 11.2725 10.9921C11.3827 10.8224 11.4973 10.8521 11.6499 10.9072C11.8026 10.9624 12.6296 11.3695 12.7993 11.4543C12.9689 11.5392 13.0792 11.5816 13.1216 11.6494C13.1598 11.73 13.1598 12.0693 13.0198 12.4595ZM17.1973 0.618408H2.26869C1.1448 0.618408 0.232971 1.53024 0.232971 2.65412V17.5827C0.232971 18.7066 1.1448 19.6184 2.26869 19.6184H17.1973C18.3211 19.6184 19.233 18.7066 19.233 17.5827V2.65412C19.233 1.53024 18.3211 0.618408 17.1973 0.618408ZM9.72873 16.7854C8.6006 16.7854 7.49369 16.5012 6.514 15.9668L2.94726 16.9041L3.9015 13.418C3.31199 12.4001 3.00239 11.2423 3.00239 10.0548C3.00663 6.3481 6.02203 3.33269 9.72873 3.33269C11.5269 3.33269 13.2149 4.03247 14.4872 5.30479C15.7553 6.57711 16.5187 8.26506 16.5187 10.0633C16.5187 13.77 13.4354 16.7854 9.72873 16.7854Z" fill="white"/>
</svg>
