<svg width="41" height="50" viewBox="0 0 41 50" fill="none" xmlns="http://www.w3.org/2000/svg">
<path d="M20.5 25C21.9094 25 23.1163 24.51 24.1208 23.53C25.1253 22.55 25.6267 21.3733 25.625 20C25.625 18.625 25.1227 17.4475 24.1182 16.4675C23.1137 15.4875 21.9077 14.9983 20.5 15C19.0906 15 17.8837 15.49 16.8792 16.47C15.8747 17.45 15.3733 18.6267 15.375 20C15.375 21.375 15.8773 22.5525 16.8818 23.5325C17.8863 24.5125 19.0923 25.0017 20.5 25ZM20.5 43.375C25.7104 38.7083 29.5755 34.4683 32.0953 30.655C34.6151 26.8417 35.875 23.4567 35.875 20.5C35.875 15.9583 34.3905 12.24 31.4214 9.345C28.4523 6.45 24.8118 5.00167 20.5 5C16.1865 5 12.5451 6.44833 9.57606 9.345C6.60698 12.2417 5.12329 15.96 5.125 20.5C5.125 23.4583 6.3849 26.8442 8.90469 30.6575C11.4245 34.4708 15.2896 38.71 20.5 43.375ZM20.5 50C13.624 44.2917 8.48871 38.99 5.09425 34.095C1.69979 29.2 0.00170833 24.6683 0 20.5C0 14.25 2.0611 9.27083 6.18331 5.5625C10.3055 1.85417 15.0778 0 20.5 0C25.924 0 30.697 1.85417 34.8192 5.5625C38.9415 9.27083 41.0017 14.25 41 20.5C41 24.6667 39.3019 29.1983 35.9057 34.095C32.5096 38.9917 27.3743 44.2933 20.5 50Z" fill="white"/>
</svg>
