<svg width="42" height="38" viewBox="0 0 42 38" fill="none" xmlns="http://www.w3.org/2000/svg">
<path d="M25.3346 3.1818C25.391 2.9972 25.4885 2.82414 25.6215 2.6725C25.7545 2.52087 25.9203 2.39363 26.1095 2.29806C26.2988 2.2025 26.5077 2.14047 26.7243 2.11552C26.941 2.09058 27.1611 2.10321 27.3722 2.1527C30.4558 2.85625 33.2693 4.26589 35.5227 6.23644C37.7762 8.20699 39.3882 10.6672 40.1927 13.3637C40.2493 13.5483 40.2638 13.7408 40.2352 13.9303C40.2067 14.1197 40.1358 14.3024 40.0265 14.4679C39.9172 14.6333 39.7717 14.7784 39.5983 14.8946C39.4249 15.0109 39.227 15.0962 39.0159 15.1456C38.8754 15.1778 38.7308 15.1943 38.5855 15.1946C38.2189 15.1946 37.8627 15.0888 37.572 14.8935C37.2814 14.6981 37.0726 14.4244 36.9783 14.1146C36.3221 11.9134 35.0064 9.90497 33.167 8.29644C31.3275 6.6879 29.0308 5.53744 26.5135 4.96364C26.3022 4.91446 26.1041 4.82933 25.9304 4.71313C25.7568 4.59694 25.6111 4.45194 25.5016 4.28645C25.3921 4.12096 25.321 3.93821 25.2923 3.74866C25.2636 3.55912 25.278 3.36649 25.3346 3.1818ZM24.8501 10.7819C27.7174 11.451 29.5596 13.0619 30.3247 15.5692C30.4191 15.8789 30.6278 16.1527 30.9185 16.348C31.2091 16.5433 31.5654 16.6492 31.932 16.6492C32.0772 16.6489 32.2219 16.6324 32.3624 16.6001C32.5735 16.5507 32.7714 16.4655 32.9448 16.3492C33.1182 16.2329 33.2637 16.0879 33.373 15.9224C33.4823 15.757 33.5532 15.5743 33.5817 15.3848C33.6102 15.1954 33.5958 15.0029 33.5392 14.8183C32.4746 11.3346 29.6926 8.90186 25.7088 7.97094C25.4978 7.92163 25.2776 7.90916 25.0611 7.93424C24.8445 7.95932 24.6357 8.02146 24.4466 8.1171C24.2575 8.21275 24.0917 8.34003 23.9589 8.49168C23.826 8.64333 23.7286 8.81638 23.6722 9.00095C23.6158 9.18552 23.6016 9.37799 23.6302 9.56738C23.6589 9.75677 23.73 9.93936 23.8394 10.1047C23.9487 10.2701 24.0943 10.415 24.2677 10.5312C24.4411 10.6474 24.639 10.7326 24.8501 10.7819ZM41.8873 28.1184C41.5166 30.5821 40.1329 32.8436 37.9948 34.4804C35.8567 36.1172 33.1103 37.0175 30.2686 37.0131C13.7595 37.0131 0.327656 25.2675 0.327656 10.831C0.322561 8.34602 1.35207 5.94441 3.22388 4.07471C5.0957 2.205 7.68183 0.995062 10.4993 0.670865C11.2117 0.594793 11.9332 0.72225 12.556 1.03421C13.1788 1.34617 13.6695 1.8259 13.9549 2.40179L18.3463 10.9746V10.9964C18.5648 11.4373 18.655 11.9185 18.6089 12.3973C18.5628 12.8761 18.3819 13.3374 18.0822 13.7401C18.0448 13.7892 18.0053 13.8346 17.9637 13.8801L13.6347 18.3674C15.1921 21.1347 18.5022 24.0038 21.7084 25.3693L26.7692 21.6038C26.8189 21.5673 26.871 21.5333 26.9252 21.502C27.3853 21.2336 27.9147 21.0698 28.4654 21.0254C29.0161 20.9809 29.5708 21.0572 30.0794 21.2474L30.1064 21.2583L39.9016 25.0966C40.5614 25.3452 41.1113 25.774 41.4692 26.3187C41.8272 26.8634 41.9738 27.4948 41.8873 28.1184ZM38.5855 27.7548H38.5626L28.7902 23.9275L23.7273 27.693C23.6782 27.7293 23.6268 27.7633 23.5735 27.7948C23.0947 28.0741 22.5413 28.24 21.9673 28.2763C21.3933 28.3126 20.8184 28.2181 20.2987 28.0021C16.4043 26.3566 12.5223 22.9875 10.6386 19.6183C10.3891 19.1672 10.2772 18.6673 10.3136 18.1672C10.35 17.667 10.5336 17.1836 10.8465 16.7638C10.8818 16.7145 10.9214 16.6676 10.965 16.6238L15.2981 12.131L10.9317 3.58544C10.9309 3.57818 10.9309 3.57088 10.9317 3.56362C8.91541 3.79362 7.06411 4.65847 5.72453 5.99622C4.38495 7.33396 3.64898 9.05284 3.65442 10.831C3.66213 17.0013 6.46859 22.9169 11.458 27.28C16.4475 31.6431 23.2124 34.0972 30.2686 34.1039C32.3007 34.11 34.2659 33.4687 35.7965 32.2998C37.3272 31.131 38.3187 29.5146 38.5855 27.753V27.7548Z" fill="white"/>
</svg>
